<?xml version="1.0" standalone="no"?>
<!DOCTYPE svg PUBLIC "-//W3C//DTD SVG 20010904//EN"
 "http://www.w3.org/TR/2001/REC-SVG-20010904/DTD/svg10.dtd">
<svg version="1.0" xmlns="http://www.w3.org/2000/svg"
 width="600.000000pt" height="600.000000pt" viewBox="0 0 600.000000 600.000000"
 preserveAspectRatio="xMidYMid meet">
<metadata>
Created by potrace 1.11, written by Peter Selinger 2001-2013
</metadata>
<g transform="translate(0.000000,600.000000) scale(0.100000,-0.100000)"
fill="#000000" stroke="none">
<path d="M2780 5664 c-14 -2 -65 -9 -115 -15 -292 -37 -669 -170 -959 -339
-302 -176 -612 -457 -791 -715 -68 -98 -76 -107 -89 -95 -7 5 -61 10 -122 12
-158 4 -162 1 -252 -194 -38 -84 -89 -214 -111 -288 -23 -74 -50 -157 -60
-185 -38 -104 -54 -197 -42 -243 11 -38 16 -43 54 -54 32 -8 52 -24 85 -65
l44 -54 -12 -129 c-8 -82 -10 -226 -7 -392 6 -304 20 -406 92 -661 43 -152 60
-199 139 -386 58 -137 176 -333 306 -506 401 -536 975 -886 1665 -1017 109
-20 150 -23 435 -23 344 0 416 7 643 65 412 105 774 293 1089 567 166 144 352
349 447 492 l36 54 65 -6 c36 -3 86 -11 111 -18 88 -24 160 13 191 97 6 19 15
34 20 34 4 0 16 28 27 63 10 34 48 145 83 247 35 102 70 214 77 250 7 36 18
75 23 87 14 29 3 158 -15 186 -37 56 -59 69 -97 64 -37 -5 -39 -4 -54 37 -13
34 -14 54 -5 121 16 114 23 529 10 590 -5 28 -15 93 -21 145 -36 294 -149 632
-307 915 -135 243 -245 388 -448 590 -407 406 -852 638 -1430 747 -91 17 -159
21 -395 23 -157 2 -296 2 -310 -1z m675 -145 c140 -28 150 -31 130 -45 -16
-12 -9 -17 67 -52 46 -22 90 -47 97 -56 20 -24 -1 -20 -73 13 -81 38 -261 108
-356 138 l-75 24 80 -6 c44 -4 103 -11 130 -16z m-531 -293 c5 -132 4 -156 -8
-147 -10 8 -15 60 -21 194 -4 100 -11 189 -15 197 -6 10 -3 22 8 34 16 17 17
15 23 -50 4 -38 9 -140 13 -228z m-189 212 c-53 -59 -115 -149 -150 -218 -12
-25 -32 -56 -44 -70 -17 -21 -20 -22 -21 -7 0 42 173 307 218 331 46 26 46 18
-3 -36z m325 -114 c40 -57 51 -106 29 -120 -7 -4 -9 -21 -5 -45 6 -37 5 -39
-21 -39 -14 0 -35 -7 -45 -17 -10 -9 -20 -14 -22 -12 -2 2 -7 85 -10 184 l-7
180 21 -37 c11 -21 38 -63 60 -94z m141 90 c13 -14 52 -48 85 -75 65 -51 80
-74 65 -93 -5 -6 -10 -20 -12 -30 -4 -18 -6 -17 -23 9 -13 20 -15 30 -8 33 14
4 16 32 3 32 -5 0 -12 -6 -15 -12 -3 -10 -8 -9 -15 3 -6 9 -35 48 -66 88 -54
69 -62 97 -14 45z m-386 -22 c0 -37 -2 -39 -32 -40 -18 -1 -33 1 -33 5 0 10
50 73 58 73 5 0 8 -17 7 -38z m-267 -39 c-47 -49 -128 -180 -128 -208 0 -20
-24 -19 -100 7 l-64 21 40 34 c75 65 269 192 294 193 2 0 -17 -21 -42 -47z
m-308 33 c0 -8 -154 -86 -159 -81 -5 6 -11 3 79 47 84 41 80 40 80 34z m190
-1 c0 -2 -28 -23 -62 -46 -35 -24 -86 -62 -115 -87 -42 -36 -55 -42 -70 -33
-15 8 -15 10 -2 11 8 0 45 24 81 54 36 30 87 66 114 80 55 28 54 28 54 21z
m315 -91 c11 -15 14 -15 39 1 14 10 29 16 32 13 2 -3 0 -28 -6 -55 -9 -41 -8
-58 4 -88 21 -50 20 -62 -4 -40 -12 11 -36 18 -69 18 -40 1 -48 3 -39 14 20
25 -32 14 -69 -14 l-35 -27 32 64 c37 73 77 130 93 130 5 0 15 -7 22 -16z
m-825 -18 c0 -2 -20 -16 -43 -30 -90 -52 -275 -191 -366 -275 -114 -104 -241
-253 -241 -284 -1 -21 -2 -21 -25 6 -41 47 -34 66 63 158 159 153 323 275 512
381 80 45 100 54 100 44z m40 -54 c-207 -140 -438 -351 -570 -521 -68 -86 -74
-92 -87 -75 -12 16 -11 20 4 27 10 5 45 42 78 83 64 79 224 240 315 316 68 57
260 188 274 187 6 0 0 -8 -14 -17z m1485 -3 c11 -17 0 -20 -21 -4 -17 13 -17
14 -2 15 9 0 20 -5 23 -11z m-181 -26 c3 -10 9 -25 12 -33 5 -10 0 -9 -15 4
-21 19 -29 46 -12 46 5 0 11 -8 15 -17z m-1221 -23 c-3 -11 -9 -17 -14 -14 -5
2 -23 -2 -41 -11 l-33 -16 35 31 c40 35 60 39 53 10z m81 -32 c-10 -13 -45
-52 -77 -87 -33 -35 -83 -97 -113 -137 -50 -67 -74 -89 -74 -65 0 12 47 80 86
123 18 20 40 50 49 67 8 17 28 37 45 46 16 8 35 23 42 33 11 16 45 41 57 42 2
0 -4 -10 -15 -22z m1071 -18 c3 -5 2 -10 -4 -10 -5 0 -13 5 -16 10 -3 6 -2 10
4 10 5 0 13 -4 16 -10z m-917 -26 c39 -15 72 -29 72 -33 -1 -13 -70 -49 -131
-70 -81 -27 -120 -51 -151 -93 -31 -41 -40 -75 -27 -100 8 -15 4 -26 -21 -56
-17 -20 -40 -47 -50 -59 -10 -13 -30 -23 -43 -23 -23 0 -87 -58 -87 -79 0 -7
-27 -23 -65 -40 -5 -2 9 15 33 38 26 25 41 48 38 57 -8 20 18 87 55 142 59 87
281 342 298 342 3 0 39 -12 79 -26z m-373 -24 c5 -16 -11 -43 -67 -113 -41
-51 -83 -105 -93 -120 -10 -16 -41 -39 -69 -52 -97 -44 -150 -124 -88 -133 23
-3 31 -35 12 -47 -5 -3 -10 -14 -10 -24 0 -10 -11 -28 -25 -41 -14 -13 -25
-29 -25 -37 0 -7 -7 -13 -16 -13 -19 0 -154 71 -154 81 0 10 105 145 163 209
91 102 331 310 357 310 5 0 12 -9 15 -20z m630 -150 c-3 -5 -10 -10 -16 -10
-5 0 -9 5 -9 10 0 6 7 10 16 10 8 0 12 -4 9 -10z m-111 -64 c-3 -9 -10 -16
-15 -16 -6 0 -5 9 1 21 13 24 24 20 14 -5z m-283 -76 c18 0 8 -16 -25 -37
l-34 -22 5 22 c9 43 13 49 29 43 9 -3 20 -6 25 -6z m245 -29 c-11 -20 -21 -28
-32 -24 -22 8 -13 35 16 50 32 16 35 11 16 -26z m-586 -20 c0 -20 -25 -51 -41
-51 -8 0 31 69 39 70 1 0 2 -9 2 -19z m367 -28 c-9 -9 -19 -14 -23 -11 -10 10
6 28 24 28 15 0 15 -1 -1 -17z m-981 -35 l17 -33 -26 24 c-15 13 -24 28 -21
32 8 14 13 11 30 -23z m1074 2 c0 -5 -3 -10 -7 -10 -5 0 -21 -11 -37 -25 l-30
-26 -20 20 c-23 24 -19 30 20 37 16 3 31 7 33 10 9 8 41 4 41 -6z m2761 -7
c13 -16 12 -17 -3 -4 -17 13 -22 21 -14 21 2 0 10 -8 17 -17z m-3861 -89 c0
-18 -49 -105 -65 -116 -16 -12 -68 -9 -92 5 -22 12 -22 13 39 92 33 44 66 83
72 87 11 7 46 -43 46 -68z m3940 -18 c0 -5 -1 -7 -3 -5 -2 2 -18 24 -36 49
l-33 45 36 -40 c20 -22 36 -44 36 -49z m-3401 -18 c-8 -14 -14 -18 -17 -10 -4
13 17 46 25 38 3 -2 -1 -15 -8 -28z m-466 -62 c-21 -33 -32 -43 -43 -36 -15 9
-11 17 39 73 36 39 38 18 4 -37z m3895 39 c-3 -3 -9 2 -12 12 -6 14 -5 15 5 6
7 -7 10 -15 7 -18z m-3719 -80 c27 -9 54 -14 62 -13 27 6 21 -98 -6 -109 -8
-3 -36 12 -62 35 -57 47 -85 62 -112 62 -27 0 -26 7 5 53 l25 38 20 -25 c11
-13 41 -32 68 -41z m-753 1 c3 -7 -2 -40 -12 -72 -21 -75 -97 -279 -118 -319
-9 -16 -16 -34 -16 -39 0 -5 -11 -24 -26 -43 -18 -23 -33 -33 -53 -33 -31 0
-32 -4 -92 -222 -13 -49 -27 -88 -31 -88 -20 0 7 113 63 270 23 63 53 153 69
200 15 47 39 111 54 143 14 32 26 61 26 66 0 5 6 14 14 20 8 7 18 25 21 41 13
58 87 113 101 76z m128 -4 c3 -5 -16 -62 -43 -128 -152 -377 -205 -537 -199
-596 2 -26 8 -34 26 -36 28 -4 44 31 136 290 75 214 142 384 162 416 13 19 22
23 57 20 57 -4 58 -23 8 -156 -22 -59 -65 -177 -95 -262 -137 -388 -178 -484
-222 -519 -37 -29 -66 -26 -115 12 -57 43 -74 95 -59 182 26 151 97 370 207
635 58 143 63 150 100 150 17 0 34 -4 37 -8z m401 -73 c76 -20 160 -60 180
-87 43 -59 27 -194 -41 -341 -47 -102 -93 -155 -151 -177 -27 -10 -49 -18 -50
-19 -5 -2 -23 -194 -33 -347 -6 -87 -13 -165 -17 -174 -7 -19 -40 -14 -113 17
-48 21 -50 23 -50 63 0 57 19 275 26 310 4 18 2 26 -4 22 -10 -6 -55 -141 -82
-246 -19 -71 -23 -73 -91 -37 -32 18 -59 39 -59 47 -1 63 243 793 316 946 16
33 19 34 73 34 31 0 74 -5 96 -11z m757 -144 c-5 -18 -11 -25 -16 -17 -4 6 -2
21 4 33 15 28 21 20 12 -16z m-227 -30 c157 -50 195 -77 215 -151 20 -69 8
-193 -29 -301 -57 -172 -119 -268 -198 -306 l-44 -21 -97 32 c-53 18 -100 32
-104 32 -7 0 -18 -36 -94 -288 -36 -121 -43 -125 -135 -72 -39 23 -73 48 -76
56 -10 26 259 842 348 1053 12 29 25 27 214 -34z m844 13 c-70 -78 -109 -135
-116 -170 -10 -50 -24 -53 -35 -9 -8 28 -5 40 18 75 45 67 106 126 131 126
l22 0 -20 -22z m154 -38 c-22 -47 -27 -51 -55 -48 -41 4 -50 28 -11 28 35 0
53 16 53 46 0 21 17 36 31 28 4 -2 -5 -26 -18 -54z m537 27 c-63 -31 -65 -34
-68 -72 -2 -33 5 -52 39 -105 40 -62 41 -67 36 -126 -5 -53 -3 -66 14 -88 24
-31 8 -35 -22 -5 -21 21 -21 23 -2 119 3 20 -5 38 -36 74 -42 52 -75 134 -65
161 11 28 95 75 134 75 34 0 33 -2 -30 -33z m-1047 -173 c49 -20 69 -34 73
-50 7 -28 -12 -94 -83 -294 -113 -316 -201 -599 -189 -609 6 -5 36 -19 66 -31
80 -31 93 -46 85 -95 -9 -63 -45 -179 -60 -193 -10 -11 -19 -10 -51 6 -22 10
-99 43 -172 72 -74 29 -142 60 -153 69 -19 15 -19 18 -3 56 9 22 36 105 61
185 147 485 278 873 306 908 13 16 30 13 120 -24z m527 -9 c45 -29 49 -34 25
-29 -16 4 -48 15 -70 25 -22 10 -48 19 -57 19 -10 0 -18 5 -18 10 0 23 68 9
120 -25z m58 -196 c104 -38 203 -79 220 -89 28 -17 31 -23 26 -52 -16 -92 -65
-208 -88 -208 -7 0 -54 18 -104 40 -49 22 -103 43 -119 46 -29 6 -30 5 -51
-68 -12 -40 -22 -81 -22 -91 0 -18 33 -36 143 -77 31 -12 57 -26 57 -30 0 -12
-59 -180 -77 -217 -8 -18 -22 -33 -30 -33 -8 0 -45 13 -83 30 -110 48 -108 49
-146 -55 -18 -49 -33 -97 -33 -106 -1 -12 21 -25 67 -44 151 -60 182 -77 182
-99 0 -50 -59 -213 -81 -227 -6 -3 -54 9 -107 28 -54 19 -106 37 -117 40 -20
5 -158 67 -225 101 -19 9 -35 22 -35 27 0 6 83 258 183 560 177 532 203 595
239 595 7 0 97 -32 201 -71z m-527 -212 c-8 -8 -11 -7 -11 4 0 20 13 34 18 19
3 -7 -1 -17 -7 -23z m1372 -126 c80 -36 119 -73 112 -103 -4 -22 -45 -242 -65
-353 -43 -241 -50 -289 -47 -299 6 -17 86 125 210 372 l112 224 43 -7 c59 -9
152 -51 152 -70 0 -45 -97 -672 -107 -687 -2 -5 0 -8 6 -8 13 0 224 429 278
563 17 42 18 42 90 23 60 -16 132 -54 146 -77 18 -29 -510 -1060 -547 -1067
-25 -5 -266 86 -266 100 0 4 11 61 25 125 21 103 65 355 65 376 0 30 -33 -21
-135 -208 -64 -118 -121 -217 -126 -220 -9 -6 -80 15 -144 44 -22 10 -59 26
-82 36 -50 21 -50 18 -23 170 11 61 27 155 36 210 8 55 20 120 25 145 6 25 19
101 29 170 17 113 38 237 60 360 4 25 13 82 20 128 13 81 14 82 42 82 16 0 56
-13 91 -29z m-396 -122 c-11 -29 -12 -29 -15 -9 -3 18 10 38 25 40 1 0 -4 -14
-10 -31z m-2612 -26 c25 -28 33 -53 16 -53 -5 0 -28 18 -52 40 -43 39 -44 39
-17 40 17 0 37 -10 53 -27z m4976 -39 c-2 -25 2 -51 8 -57 14 -14 15 -233 1
-242 -6 -4 -10 29 -10 93 0 54 -3 133 -6 175 -4 44 -3 77 2 77 5 0 8 -21 5
-46z m-5047 -164 c-3 -19 -7 -50 -9 -68 -2 -19 -6 -36 -9 -39 -7 -8 -10 69 -6
160 l2 42 14 -30 c8 -18 11 -44 8 -65z m4369 75 c-3 -9 -8 -14 -10 -11 -3 3
-2 9 2 15 9 16 15 13 8 -4z m664 -267 c-1 -46 -3 -11 -3 77 0 88 2 125 3 83 2
-42 2 -114 0 -160z m-776 26 c54 -17 130 -64 165 -101 35 -37 64 -141 64 -227
0 -85 -22 -180 -89 -385 -111 -339 -215 -475 -349 -457 -135 18 -246 78 -269
146 -29 84 -10 250 52 455 133 440 184 543 291 580 41 14 59 13 135 -11z m457
-216 c77 -29 174 -97 194 -138 24 -47 23 -147 -2 -243 -38 -146 -92 -236 -156
-263 -29 -12 -31 -17 -37 -81 -10 -99 -56 -362 -68 -384 -12 -23 -85 -26 -114
-5 -19 13 -19 17 3 176 13 89 21 165 18 168 -3 2 -8 -1 -10 -9 -3 -8 -20 -52
-37 -99 -17 -47 -38 -107 -46 -133 -8 -26 -21 -51 -30 -54 -15 -6 -105 19
-132 36 -16 10 -17 5 92 326 66 194 140 431 207 663 24 82 14 78 118 40z m334
-90 c-10 -22 -17 -3 -13 35 l5 42 6 -35 c3 -19 4 -38 2 -42z m-2 -118 l34 -30
-17 -85 c-18 -90 -129 -456 -171 -569 -31 -82 -32 -96 -6 -96 33 0 35 -28 9
-103 -36 -105 -33 -103 -120 -88 -41 7 -78 16 -82 20 -5 5 16 71 46 147 66
166 97 263 172 534 67 246 84 300 93 300 4 -1 23 -14 42 -30z m-4570 -80 c-8
-5 -19 -10 -25 -10 -5 0 -3 5 5 10 8 5 20 10 25 10 6 0 3 -5 -5 -10z m1990 -4
c0 -3 -4 -8 -10 -11 -5 -3 -10 -1 -10 4 0 6 5 11 10 11 6 0 10 -2 10 -4z
m2750 -43 c19 -24 21 -37 17 -88 -7 -76 -12 -103 -26 -138 -6 -16 -9 -32 -7
-36 8 -12 -142 -440 -181 -517 -23 -46 -45 -76 -60 -83 -28 -13 -63 -6 -63 13
0 6 20 63 43 126 79 207 198 586 213 675 8 46 21 75 34 75 5 0 18 -12 30 -27z
m-2756 -28 c3 -8 1 -15 -4 -15 -6 0 -10 7 -10 15 0 8 2 15 4 15 2 0 6 -7 10
-15z m256 -289 c0 -2 -7 -9 -15 -16 -13 -11 -14 -10 -9 4 5 14 24 23 24 12z
m-250 -231 c-7 -9 -15 -13 -18 -10 -3 2 1 11 8 20 7 9 15 13 18 10 3 -2 -1
-11 -8 -20z m2124 -377 c-16 -24 -32 -50 -35 -58 -24 -55 -403 -449 -418 -434
-3 3 35 44 85 92 49 48 103 105 119 127 16 22 53 67 82 99 29 32 76 94 105
137 46 68 73 93 87 82 2 -1 -9 -22 -25 -45z m-2357 -20 c-3 -8 -6 -5 -6 6 -1
11 2 17 5 13 3 -3 4 -12 1 -19z m-183 -433 c-4 -8 -8 -15 -10 -15 -2 0 -4 7
-4 15 0 8 4 15 10 15 5 0 7 -7 4 -15z m2076 -49 c0 -8 -121 -98 -125 -94 -2 2
24 25 58 50 67 50 67 50 67 44z m-186 -141 c-4 -8 -11 -15 -16 -15 -6 0 -5 6
2 15 7 8 14 15 16 15 2 0 1 -7 -2 -15z m-91 -60 c-3 -9 -8 -14 -10 -11 -3 3
-2 9 2 15 9 16 15 13 8 -4z m-128 -75 c-16 -11 -34 -20 -40 -20 -12 0 46 38
60 39 6 1 -3 -8 -20 -19z m-518 -216 c-3 -3 -12 -4 -19 -1 -8 3 -5 6 6 6 11 1
17 -2 13 -5z m-50 -10 c-3 -3 -12 -4 -19 -1 -8 3 -5 6 6 6 11 1 17 -2 13 -5z
m-40 -10 c-3 -3 -12 -4 -19 -1 -8 3 -5 6 6 6 11 1 17 -2 13 -5z"/>
<path d="M530 4274 c-6 -14 -10 -27 -10 -30 0 -3 -14 -34 -31 -71 -18 -40 -27
-69 -21 -75 5 -5 13 -4 19 4 17 21 82 182 77 190 -10 15 -25 8 -34 -18z"/>
<path d="M1096 4138 c-7 -18 -26 -70 -42 -116 -31 -89 -28 -101 24 -102 47 0
80 27 101 85 28 74 27 110 -4 140 -34 35 -63 32 -79 -7z"/>
<path d="M1611 3983 c-19 -38 -81 -231 -81 -256 0 -22 7 -27 52 -41 34 -10 57
-12 69 -5 25 13 78 125 85 181 10 73 0 96 -52 118 -56 24 -61 25 -73 3z"/>
<path d="M4709 2669 c-12 -12 -31 -44 -44 -72 -45 -103 -128 -373 -133 -434
-4 -57 -3 -63 22 -86 35 -33 82 -42 113 -22 40 26 60 71 128 278 88 268 87
302 -8 342 -47 20 -53 19 -78 -6z"/>
<path d="M5260 2497 c-17 -42 -63 -217 -58 -223 3 -3 21 -7 41 -11 46 -7 71
18 93 92 24 85 8 138 -49 158 -12 5 -20 0 -27 -16z"/>
<path d="M5710 2164 c-7 -31 -40 -140 -74 -241 -56 -166 -67 -217 -39 -180 20
25 135 374 140 425 7 71 -12 68 -27 -4z"/>
</g>
</svg>
