<?xml version="1.0" standalone="no"?>
<!DOCTYPE svg PUBLIC "-//W3C//DTD SVG 20010904//EN"
 "http://www.w3.org/TR/2001/REC-SVG-20010904/DTD/svg10.dtd">
<svg version="1.0" xmlns="http://www.w3.org/2000/svg"
 width="90.000000pt" height="90.000000pt" viewBox="0 0 90.000000 90.000000"
 preserveAspectRatio="xMidYMid meet">
<metadata>
Created by potrace 1.11, written by Peter Selinger 2001-2013
</metadata>
<g transform="translate(0.000000,90.000000) scale(0.100000,-0.100000)"
fill="#000000" stroke="none">
<path d="M70 526 c0 -115 -2 -126 -18 -126 -16 0 -18 -9 -18 -72 l1 -73 415 0
415 0 0 70 0 70 -37 3 c-21 2 -38 4 -38 5 0 1 16 54 35 117 19 63 35 118 35
123 0 4 -20 7 -43 7 l-44 0 -27 -122 c-15 -67 -28 -123 -29 -125 -2 -1 -14 44
-27 100 -13 56 -25 105 -26 110 -1 4 -2 14 -3 22 -1 11 -13 15 -41 15 -44 0
-42 6 -76 -157 -10 -46 -21 -83 -25 -83 -5 0 -17 53 -21 95 0 2 -8 35 -17 72
l-17 68 -47 3 -46 3 20 -73 c11 -40 24 -84 28 -98 5 -14 12 -37 15 -52 l6 -28
-140 0 c-118 0 -140 2 -140 15 0 11 12 15 51 15 109 0 163 65 129 154 -17 45
-52 58 -165 63 l-105 5 0 -126z m178 42 c15 -15 16 -55 1 -64 -21 -12 -80 -13
-84 -1 -3 7 -7 27 -9 45 -3 32 -3 32 38 32 23 0 47 -5 54 -12z m385 -93 c3
-22 9 -48 12 -58 6 -14 1 -17 -25 -17 -31 0 -32 1 -26 33 4 17 9 49 13 71 7
44 18 32 26 -29z"/>
</g>
</svg>
