<?xml version="1.0" standalone="no"?>
<!DOCTYPE svg PUBLIC "-//W3C//DTD SVG 20010904//EN"
 "http://www.w3.org/TR/2001/REC-SVG-20010904/DTD/svg10.dtd">
<svg version="1.0" xmlns="http://www.w3.org/2000/svg"
 width="512.000000pt" height="512.000000pt" viewBox="0 0 512.000000 512.000000"
 preserveAspectRatio="xMidYMid meet">
<metadata>
Created by potrace 1.11, written by Peter Selinger 2001-2013
</metadata>
<g transform="translate(0.000000,512.000000) scale(0.100000,-0.100000)"
fill="#000000" stroke="none">
<path d="M664 5109 c-166 -19 -321 -94 -440 -213 -123 -124 -193 -271 -214
-454 -13 -119 -13 -3645 0 -3764 21 -183 91 -330 214 -454 124 -123 271 -193
454 -214 119 -13 3645 -13 3764 0 183 21 330 91 454 214 123 124 193 271 214
454 13 119 13 3645 0 3764 -21 183 -91 330 -214 454 -124 123 -271 193 -454
214 -106 12 -3673 11 -3778 -1z m951 -1537 c120 -33 201 -77 271 -146 100
-101 144 -221 144 -396 0 -163 -39 -277 -127 -371 -132 -142 -300 -189 -670
-189 l-203 0 0 -110 0 -110 756 0 755 0 -7 23 c-4 12 -92 315 -194 672 l-187
650 240 3 c132 1 242 0 245 -2 2 -3 65 -299 139 -658 75 -359 138 -656 142
-660 3 -4 74 291 156 655 l150 662 207 3 206 2 27 -112 c14 -62 84 -363 154
-668 71 -305 131 -548 135 -540 3 8 64 298 136 645 72 346 133 639 136 652 l6
23 234 0 c129 0 234 -1 234 -2 0 -2 -87 -304 -194 -673 l-194 -670 204 -3 204
-2 0 -380 0 -380 -2160 0 -2160 0 0 380 0 380 90 0 90 0 0 676 0 675 478 -3
c454 -4 481 -5 557 -26z"/>
<path d="M1030 3029 l0 -221 198 4 c210 4 232 8 290 62 32 29 41 46 52 108 16
84 -2 153 -55 204 -57 55 -98 64 -309 64 l-176 0 0 -221z"/>
<path d="M3392 2912 c-18 -103 -58 -289 -88 -414 -29 -124 -54 -231 -54 -237
0 -8 60 -11 186 -11 172 0 185 1 180 18 -25 78 -121 503 -148 650 -18 100 -35
182 -38 182 -3 0 -20 -84 -38 -188z"/>
</g>
</svg>
