<?xml version="1.0" encoding="utf-8"?>
<!-- Generator: Adobe Illustrator 20.1.0, SVG Export Plug-In . SVG Version: 6.00 Build 0)  -->
<svg version="1.1" id="Capa_1" xmlns="http://www.w3.org/2000/svg" xmlns:xlink="http://www.w3.org/1999/xlink" x="0px" y="0px"
	 viewBox="0 0 512 512" style="enable-background:new 0 0 512 512;" xml:space="preserve">
<style type="text/css">
	.st0{fill:#9578EB;}
</style>
<g transform="translate(-1)">
	<g>
		<g>
			<path class="st0" d="M9.5,138.2c2.3,0,4.4-0.9,6.1-2.5c3.3-3.4,3.3-8.8,0-12.1l-1.3-1c-0.5-0.3-1-0.6-1.5-0.8
				c-0.5-0.2-1-0.4-1.5-0.5c-0.6-0.1-1.1-0.2-1.7-0.2c-2.3,0-4.4,0.9-6.1,2.5c-3.2,3.4-3.2,8.7,0,12.1c0.8,0.8,1.8,1.4,2.8,1.8
				C7.3,137.9,8.4,138.2,9.5,138.2z"/>
			<path class="st0" d="M487.4,34.1H341.5C337.4,14.3,319.9,0,299.7,0H86.3C66.1,0,48.6,14.3,44.5,34.1H26.6
				C12,34.6,0.6,46.8,1,61.4v0v34.1c0,4.7,3.8,8.5,8.5,8.5s8.5-3.8,8.5-8.5V61.4v0c-0.3-5.1,3.4-9.6,8.5-10.2h17.1v110.9
				c0,28.3,22.9,51.2,51.2,51.2V256h-8.5c-4.7,0-8.5,3.8-8.5,8.5s3.8,8.5,8.5,8.5h110.9c4.7,0,8.5-3.8,8.5-8.5s-3.8-8.5-8.5-8.5H124
				l42.7-42.7h133c23.6,0,42.6-19.1,42.7-42.7V51.2h145.1c5.1,0.5,8.9,5,8.5,10.2v297H18.1V163.8c0-4.7-3.8-8.5-8.5-8.5
				S1,159.1,1,163.8v252.8c-0.4,14.6,11,26.7,25.6,27.2h165l-17.5,51.2h-11c-4.7,0-8.5,3.8-8.5,8.5s3.8,8.5,8.5,8.5h187.7
				c4.7,0,8.5-3.8,8.5-8.5s-3.8-8.5-8.5-8.5h-11l-17.5-51.2h165c14.6-0.5,26-12.6,25.6-27.2V61.4C513.4,46.8,502,34.6,487.4,34.1z
				 M325.3,170.7c0,14.1-11.5,25.6-25.6,25.6H163.1c-2.3,0-4.4,0.9-6,2.5l-45.2,45.2v-39.1c0-4.7-3.8-8.5-8.5-8.5h-8.5
				c-18.8,0-34.1-15.3-34.1-34.1V42.7c0-14.1,11.5-25.6,25.6-25.6h213.3c14.1,0,25.6,11.5,25.6,25.6L325.3,170.7L325.3,170.7z
				 M321.9,494.9H192.1l17.5-51.2h94.7L321.9,494.9z M487.4,426.7H26.6c-5.1-0.5-8.9-5-8.5-10.2v-41h477.9v41
				C496.3,421.6,492.5,426.1,487.4,426.7z"/>
			<path class="st0" d="M135,62.2c-1.6-1.6-3.8-2.5-6-2.5s-4.4,0.9-6,2.5L88.8,96.4c-1.6,1.6-2.5,3.8-2.5,6s0.9,4.4,2.5,6l34.1,34.1
				c3.3,3.3,8.7,3.3,12.1,0s3.3-8.7,0-12.1l-28.1-28.1L135,74.3c1.6-1.6,2.5-3.8,2.5-6S136.6,63.8,135,62.2z"/>
			<path class="st0" d="M163.1,59.7c-4.7,0-8.5,3.8-8.5,8.5v42.7c0,4.7,3.8,8.5,8.5,8.5s8.5-3.8,8.5-8.5V68.3
				C171.7,63.6,167.9,59.7,163.1,59.7z"/>
			<path class="st0" d="M159.9,128.7c-1,0.4-2,1-2.8,1.8c-1.6,1.6-2.4,3.8-2.5,6.1c0,0.6,0.1,1.1,0.2,1.7c0.1,0.5,0.3,1.1,0.5,1.5
				c0.2,0.5,0.4,1,0.8,1.4c0.3,0.5,0.6,0.9,1,1.4c0.8,0.8,1.8,1.4,2.8,1.8c1,0.4,2.1,0.7,3.2,0.7c2.3,0,4.4-0.9,6.1-2.5
				c0.3-0.4,0.7-0.9,1-1.4c0.3-0.4,0.6-0.9,0.8-1.4c0.2-0.5,0.4-1,0.5-1.5c0.1-0.6,0.2-1.1,0.2-1.7c0-2.3-0.9-4.4-2.5-6.1
				C166.7,128.1,163.1,127.4,159.9,128.7z"/>
			<path class="st0" d="M222.9,93.9h-25.6c-4.7,0-8.5,3.8-8.5,8.5c0,4.7,3.8,8.5,8.5,8.5h25.6c4.7,0,8.5-3.8,8.5-8.5
				C231.4,97.7,227.6,93.9,222.9,93.9z"/>
			<path class="st0" d="M282.6,93.9H257c-4.7,0-8.5,3.8-8.5,8.5c0,4.7,3.8,8.5,8.5,8.5h25.6c4.7,0,8.5-3.8,8.5-8.5
				C291.1,97.7,287.3,93.9,282.6,93.9z"/>
			<path class="st0" d="M43.7,273.1h8.5c4.7,0,8.5-3.8,8.5-8.5s-3.8-8.5-8.5-8.5h-8.5c-4.7,0-8.5,3.8-8.5,8.5S39,273.1,43.7,273.1z"
				/>
			<path class="st0" d="M43.7,307.2h8.5c4.7,0,8.5-3.8,8.5-8.5c0-4.7-3.8-8.5-8.5-8.5h-8.5c-4.7,0-8.5,3.8-8.5,8.5
				C35.1,303.4,39,307.2,43.7,307.2z"/>
			<path class="st0" d="M43.7,341.3h8.5c4.7,0,8.5-3.8,8.5-8.5c0-4.7-3.8-8.5-8.5-8.5h-8.5c-4.7,0-8.5,3.8-8.5,8.5
				C35.1,337.5,39,341.3,43.7,341.3z"/>
			<path class="st0" d="M291.1,256h-59.7c-4.7,0-8.5,3.8-8.5,8.5s3.8,8.5,8.5,8.5h59.7c4.7,0,8.5-3.8,8.5-8.5S295.9,256,291.1,256z"
				/>
			<path class="st0" d="M350.9,256h-25.6c-4.7,0-8.5,3.8-8.5,8.5s3.8,8.5,8.5,8.5h25.6c4.7,0,8.5-3.8,8.5-8.5S355.6,256,350.9,256z"
				/>
			<path class="st0" d="M419.1,256H385c-4.7,0-8.5,3.8-8.5,8.5s3.8,8.5,8.5,8.5h34.1c4.7,0,8.5-3.8,8.5-8.5S423.9,256,419.1,256z"/>
			<path class="st0" d="M470.3,273.1c4.7,0,8.5-3.8,8.5-8.5s-3.8-8.5-8.5-8.5h-17.1c-4.7,0-8.5,3.8-8.5,8.5s3.8,8.5,8.5,8.5H470.3z"
				/>
			<path class="st0" d="M163.1,290.1h-51.2c-4.7,0-8.5,3.8-8.5,8.5c0,4.7,3.8,8.5,8.5,8.5h51.2c4.7,0,8.5-3.8,8.5-8.5
				C171.7,294,167.9,290.1,163.1,290.1z"/>
			<path class="st0" d="M188.7,298.7c0,4.7,3.8,8.5,8.5,8.5h42.7c4.7,0,8.5-3.8,8.5-8.5c0-4.7-3.8-8.5-8.5-8.5h-42.7
				C192.6,290.1,188.7,294,188.7,298.7z"/>
			<path class="st0" d="M308.2,290.1h-34.1c-4.7,0-8.5,3.8-8.5,8.5c0,4.7,3.8,8.5,8.5,8.5h34.1c4.7,0,8.5-3.8,8.5-8.5
				C316.7,294,312.9,290.1,308.2,290.1z"/>
			<path class="st0" d="M333.8,298.7c0,4.7,3.8,8.5,8.5,8.5H385c4.7,0,8.5-3.8,8.5-8.5c0-4.7-3.8-8.5-8.5-8.5h-42.7
				C337.6,290.1,333.8,294,333.8,298.7z"/>
			<path class="st0" d="M410.6,298.7c0,4.7,3.8,8.5,8.5,8.5h51.2c4.7,0,8.5-3.8,8.5-8.5c0-4.7-3.8-8.5-8.5-8.5h-51.2
				C414.4,290.1,410.6,294,410.6,298.7z"/>
			<path class="st0" d="M77.8,332.8c0,4.7,3.8,8.5,8.5,8.5h34.1c4.7,0,8.5-3.8,8.5-8.5c0-4.7-3.8-8.5-8.5-8.5H86.3
				C81.6,324.3,77.8,328.1,77.8,332.8z"/>
			<path class="st0" d="M154.6,324.3c-4.7,0-8.5,3.8-8.5,8.5c0,4.7,3.8,8.5,8.5,8.5h34.1c4.7,0,8.5-3.8,8.5-8.5
				c0-4.7-3.8-8.5-8.5-8.5H154.6z"/>
			<path class="st0" d="M222.9,324.3c-4.7,0-8.5,3.8-8.5,8.5c0,4.7,3.8,8.5,8.5,8.5h42.7c4.7,0,8.5-3.8,8.5-8.5
				c0-4.7-3.8-8.5-8.5-8.5H222.9z"/>
			<path class="st0" d="M291.1,332.8c0,4.7,3.8,8.5,8.5,8.5h25.6c4.7,0,8.5-3.8,8.5-8.5c0-4.7-3.8-8.5-8.5-8.5h-25.6
				C295,324.3,291.1,328.1,291.1,332.8z"/>
			<path class="st0" d="M359.4,324.3c-4.7,0-8.5,3.8-8.5,8.5c0,4.7,3.8,8.5,8.5,8.5h51.2c4.7,0,8.5-3.8,8.5-8.5
				c0-4.7-3.8-8.5-8.5-8.5H359.4z"/>
			<path class="st0" d="M470.3,324.3h-25.6c-4.7,0-8.5,3.8-8.5,8.5c0,4.7,3.8,8.5,8.5,8.5h25.6c4.7,0,8.5-3.8,8.5-8.5
				C478.9,328.1,475.1,324.3,470.3,324.3z"/>
		</g>
	</g>
</g>
</svg>
