<?xml version="1.0" encoding="utf-8"?>
<!-- Generator: Adobe Illustrator 20.1.0, SVG Export Plug-In . SVG Version: 6.00 Build 0)  -->
<svg version="1.1" id="Capa_1" xmlns="http://www.w3.org/2000/svg" xmlns:xlink="http://www.w3.org/1999/xlink" x="0px" y="0px"
	 viewBox="0 0 512 512" style="enable-background:new 0 0 512 512;" xml:space="preserve">
<style type="text/css">
	.st0{fill:#C0341D;}
</style>
<g>
	<g>
		<path class="st0" d="M332.8,110.9c2.3,0,4.4-0.9,6-2.5c1.6-1.6,2.5-3.8,2.5-6V85.3c0-4.7-3.8-8.5-8.5-8.5s-8.5,3.8-8.5,8.5v17.1
			c0,2.3,0.9,4.4,2.5,6C328.4,110,330.5,110.9,332.8,110.9z"/>
		<path class="st0" d="M298.7,110.9c2.3,0,4.4-0.9,6-2.5c1.6-1.6,2.5-3.8,2.5-6V85.3c0-4.7-3.8-8.5-8.5-8.5s-8.5,3.8-8.5,8.5v17.1
			c0,2.3,0.9,4.4,2.5,6C294.2,110,296.4,110.9,298.7,110.9z"/>
		<path class="st0" d="M221.9,494.9c-4.7,0-8.5,3.8-8.5,8.5c0,4.7,3.8,8.5,8.5,8.5h68.3c4.7,0,8.5-3.8,8.5-8.5
			c0-4.7-3.8-8.5-8.5-8.5H221.9z"/>
		<path class="st0" d="M180.1,354.7c-3.8,23.8,3.7,47.9,20.4,65.3c8.3,8.7,12.9,20.3,12.8,32.3c0,14.1,11.5,25.6,25.6,25.6h34.1
			c14.1,0,25.6-11.5,25.6-25.6c-0.2-11.9,4.3-23.4,12.5-32c14.5-15,22.3-35.3,21.6-56.1s-10-40.5-25.5-54.4
			c-20.9-18.7-50.4-24.5-76.9-15.2C203.9,303.9,184.6,327,180.1,354.7L180.1,354.7z M256.1,307.2c14.7,0,28.9,5.4,39.8,15.2
			c12.1,10.8,19.3,26.1,19.9,42.3c0.6,16.2-5.5,32-16.8,43.7c-11.3,11.8-17.5,27.5-17.3,43.9c0,4.7-3.8,8.5-8.5,8.5h-34.1
			c-4.7,0-8.5-3.8-8.5-8.5c0.1-16.4-6.2-32.2-17.5-44.1c-15.7-16.4-20.8-40.2-13.1-61.6s26.8-36.5,49.4-39
			C251.4,307.3,253.8,307.2,256.1,307.2L256.1,307.2z"/>
		<path class="st0" d="M264.5,264.5v-17.1c0-4.7-3.8-8.5-8.5-8.5c-4.7,0-8.5,3.8-8.5,8.5v17.1c0,4.7,3.8,8.5,8.5,8.5
			C260.7,273.1,264.5,269.2,264.5,264.5z"/>
		<path class="st0" d="M177.6,276.4c-2.2-2.2-5.3-3-8.2-2.2s-5.3,3.1-6,6s0.1,6.1,2.2,8.2l12.1,12.1c2.2,2.2,5.3,3,8.2,2.2
			c2.9-0.8,5.2-3.1,6-6s-0.1-6.1-2.2-8.2L177.6,276.4z"/>
		<path class="st0" d="M153.6,375.5c4.7,0,8.5-3.8,8.5-8.5s-3.8-8.5-8.5-8.5h-17.1c-4.7,0-8.5,3.8-8.5,8.5s3.8,8.5,8.5,8.5H153.6z"
			/>
		<path class="st0" d="M165.5,457.4c1.6,1.6,3.8,2.5,6,2.5s4.4-0.9,6-2.5l12.1-12.1c2.2-2.2,3-5.3,2.2-8.2c-0.8-2.9-3.1-5.2-6-6
			s-6.1,0.1-8.2,2.2l-12.1,12.1c-1.6,1.6-2.5,3.8-2.5,6S163.9,455.8,165.5,457.4z"/>
		<path class="st0" d="M346.5,276.4c-1.6-1.6-3.8-2.5-6-2.5s-4.4,0.9-6,2.5l-12.1,12.1c-2.2,2.2-3,5.3-2.2,8.2c0.8,2.9,3.1,5.2,6,6
			s6.1-0.1,8.2-2.2l12.1-12.1c1.6-1.6,2.5-3.8,2.5-6S348.1,278,346.5,276.4z"/>
		<path class="st0" d="M375.5,375.5c4.7,0,8.5-3.8,8.5-8.5s-3.8-8.5-8.5-8.5h-17.1c-4.7,0-8.5,3.8-8.5,8.5s3.8,8.5,8.5,8.5H375.5z"
			/>
		<path class="st0" d="M334.4,433.3c-2.2-2.2-5.3-3-8.2-2.2c-2.9,0.8-5.2,3.1-6,6s0.1,6.1,2.2,8.2l12.1,12.1c2.2,2.2,5.3,3,8.2,2.2
			s5.3-3.1,6-6s-0.1-6.1-2.2-8.2L334.4,433.3z"/>
		<path class="st0" d="M486.4,85.3h-39c-9.7-10-44.2-42.7-80.5-42.7h-82.2L235.9,2c-1.5-1.3-3.5-2-5.5-2h-93.9
			c-3.5,0-6.6,2.1-7.9,5.3c-1.3,3.2-0.6,6.9,1.9,9.3l34.3,34.3l-23.5,11.8c-1.5,0.8-2.7,1.9-3.5,3.4C124,64,97.1,81.4,89.1,86.8
			c-2.4,1.6-3.8,4.2-3.8,7.1s1.4,5.5,3.8,7.1c7.9,5.3,34.9,22.7,48.6,22.8c0.8,1.4,2.1,2.6,3.5,3.4l23.5,11.8l-34.3,34.3
			c-2.4,2.4-3.2,6.1-1.9,9.3c1.3,3.2,4.4,5.3,7.9,5.3h93.9c2,0,3.9-0.7,5.5-2l48.8-40.7h82.2c36.3,0,70.8-32.7,80.5-42.7h39
			c4.7,0,8.5,3.8,8.5,8.5c0,4.7,3.8,8.5,8.5,8.5c4.7,0,8.5-3.8,8.5-8.5C512,96.8,500.5,85.3,486.4,85.3z M358.4,128h-128V59.7h128
			V128z M187.7,128V59.7h25.6V128H187.7z M157.1,17.1h70.2L258,42.7h-75.3L157.1,17.1z M136.5,81.2v25.3c-9.4-3-18.4-7.2-26.7-12.6
			C118.1,88.5,127.1,84.2,136.5,81.2z M153.6,73.5l17.1-8.5v57.7l-17.1-8.5V73.5z M227.3,170.7h-70.2l25.6-25.6H258L227.3,170.7z
			 M375.5,127.2V60.5c23.4,4.1,46.1,23.5,56.3,33.3C421.5,103.7,398.8,123.1,375.5,127.2z"/>
		<path class="st0" d="M503.5,341.3c-2.3,0-4.4,0.9-6,2.5s-2.5,3.8-2.5,6c0,4.7-3.8,8.5-8.5,8.5h-56.2l2.5-2.5c3.3-3.3,3.3-8.7,0-12
			c-3.3-3.3-8.7-3.3-12,0l-17.1,17.1c-3.3,3.3-3.3,8.7,0,12.1l17.1,17.1c3.3,3.3,8.7,3.3,12-0.1c3.3-3.3,3.3-8.7,0.1-12l-2.5-2.5
			h56.2c14.1,0,25.6-11.5,25.6-25.6c0-2.3-0.9-4.4-2.5-6C507.9,342.2,505.7,341.3,503.5,341.3z"/>
		<path class="st0" d="M503.5,136.5c-2.3,0-4.4,0.9-6,2.5s-2.5,3.8-2.5,6v34.1c0,4.7,3.8,8.5,8.5,8.5c4.7,0,8.5-3.8,8.5-8.5v-34.1
			c0-2.3-0.9-4.4-2.5-6C507.9,137.4,505.7,136.5,503.5,136.5z"/>
		<path class="st0" d="M503.5,204.8c-2.3,0-4.4,0.9-6,2.5c-1.6,1.6-2.5,3.8-2.5,6v34.1c0,4.7,3.8,8.5,8.5,8.5c4.7,0,8.5-3.8,8.5-8.5
			v-34.1c0-2.3-0.9-4.4-2.5-6C507.9,205.7,505.7,204.8,503.5,204.8z"/>
		<path class="st0" d="M503.5,273.1c-2.3,0-4.4,0.9-6,2.5c-1.6,1.6-2.5,3.8-2.5,6v34.1c0,4.7,3.8,8.5,8.5,8.5c4.7,0,8.5-3.8,8.5-8.5
			v-34.1c0-2.3-0.9-4.4-2.5-6C507.9,274,505.7,273.1,503.5,273.1z"/>
		<path class="st0" d="M0,110.9c0,4.7,3.8,8.5,8.5,8.5s8.5-3.8,8.5-8.5c0-4.7,3.8-8.5,8.5-8.5h13.5l-2.5,2.5c-2.2,2.2-3,5.3-2.3,8.3
			s3.1,5.3,6.1,6.1s6.1-0.1,8.3-2.3l17.1-17.1c3.3-3.3,3.3-8.7,0-12.1L48.7,70.8c-3.3-3.3-8.7-3.3-12,0.1s-3.3,8.7-0.1,12l2.5,2.5
			H25.6C11.5,85.3,0,96.8,0,110.9z"/>
		<path class="st0" d="M25.6,375.5h8.5c4.7,0,8.5-3.8,8.5-8.5s-3.8-8.5-8.5-8.5h-8.5c-4.7,0-8.5-3.8-8.5-8.5c0-4.7-3.8-8.5-8.5-8.5
			S0,345.2,0,349.9C0,364,11.5,375.5,25.6,375.5z"/>
		<path class="st0" d="M8.5,187.7c2.3,0,4.4-0.9,6-2.5c1.6-1.6,2.5-3.8,2.5-6v-34.1c0-4.7-3.8-8.5-8.5-8.5S0,140.4,0,145.1v34.1
			c0,2.3,0.9,4.4,2.5,6C4.1,186.8,6.3,187.7,8.5,187.7z"/>
		<path class="st0" d="M8.5,256c2.3,0,4.4-0.9,6-2.5s2.5-3.8,2.5-6v-34.1c0-4.7-3.8-8.5-8.5-8.5S0,208.6,0,213.3v34.1
			c0,2.3,0.9,4.4,2.5,6S6.3,256,8.5,256z"/>
		<path class="st0" d="M8.5,324.3c2.3,0,4.4-0.9,6-2.5s2.5-3.8,2.5-6v-34.1c0-4.7-3.8-8.5-8.5-8.5S0,276.9,0,281.6v34.1
			c0,2.3,0.9,4.4,2.5,6S6.3,324.3,8.5,324.3z"/>
		<path class="st0" d="M59.7,366.9c0,2.3,0.9,4.4,2.5,6c1.6,1.6,3.8,2.5,6,2.5h34.1c4.7,0,8.5-3.8,8.5-8.5s-3.8-8.5-8.5-8.5H68.3
			c-2.3,0-4.4,0.9-6,2.5C60.6,362.5,59.7,364.7,59.7,366.9z"/>
	</g>
</g>
</svg>
