<?xml version="1.0" encoding="utf-8"?>
<!-- Generator: Adobe Illustrator 19.1.0, SVG Export Plug-In . SVG Version: 6.00 Build 0)  -->
<svg version="1.1" id="Layer_1" xmlns="http://www.w3.org/2000/svg" xmlns:xlink="http://www.w3.org/1999/xlink" x="0px" y="0px"
	 viewBox="0 0 205.8 146.8" style="enable-background:new 0 0 205.8 146.8;" xml:space="preserve">
<style type="text/css">
	.st0{fill:#11140B;}
	.st1{fill:#9D7A55;}
	.st2{fill:#9D7953;}
	.st3{fill:#3A2E21;}
	.st4{fill:#DECEBA;}
	.st5{fill:#3A2716;}
	.st6{fill:#DCB88E;}
	.st7{fill:#1C1310;}
	.st8{fill:#E1D2C0;}
	.st9{fill:#E0D67C;}
	.st10{fill:#504333;}
	.st11{fill:#AE9172;}
	.st12{fill:#8D765D;}
	.st13{fill:#F2E970;}
	.st14{fill:#D0AF87;}
	.st15{fill:#E5DF63;}
	.st16{fill:#CC2C21;}
	.st17{fill:#AE9273;}
	.st18{fill:#E04744;}
	.st19{fill:#AB8E70;}
</style>
<g>
	<path class="st0" d="M104.9,2.6c1,0,1.9-0.1,2.9-0.1c6.1-1.5,12.1-3.5,18.5-1.9c4.4,1.1,9,1.7,13.2,3.5c5,2.2,10,4.6,13.7,9.2
		c4.3,5.5,9.7,9.6,17.3,9.2c1.2-0.1,2.4-0.2,3.5,0.2c9.6,3.5,17.6,9.7,24.3,17.2c4.4,4.9,6.4,11.1,7.5,17.5
		c-0.2,0.4-0.7,0.9-0.7,1.3c-0.6,11.5-7.4,18.1-17.3,22.5c-4.8,2.1-9.7,3.9-12.2,9.4c-3.3,7.2-7.2,14-11,20.9
		c-5.4,9.8-10.9,19.5-16.6,29.1c-2.4,4-6.1,5.1-10.4,3c-7.2-3.5-14-7.5-21.1-11.1c-2.7-1.4-5.8-2.1-8.7-3.1c-0.3,0-0.6,0-1-0.1
		c-2.7-2.2-5.6-1.8-8.3-0.1c-6.7,4.2-13.3,8.5-19.9,12.9c-1.2,0.8-2,2.1-3,3.2c-0.8,0.1-1.7,0.2-2.4,0.4c-5.9,2.2-10,0.5-13-4.9
		c-4.5-7.8-9.2-15.5-14.2-23c-4.8-7.3-10.1-14.2-15.1-21.3c-1.9-2.6-3.7-4.8-7.3-5.4c-3.7-0.5-7.2-1.8-10.8-2.8
		c-3.9-4-9.6-7.4-11.2-12.2c-2.1-6.1-1.7-13.4-1-20.1c1-9.6,8-15.8,15.1-21.3c4.1-3.2,9-6,14-7c4.8-1,8.4-2.8,11.4-6.2
		c3.6-4.2,6.3-9.2,11.6-12c4.5-2.4,8.7-5.6,13.3-7.8c2.4-1.1,5.5-0.9,8.3-1.2c8.1-1,15.8-0.9,22.5,5.1C100.3,9,103.5,7.5,104.9,2.6z
		 M129.9,5.7c-1.8-0.1-3.6-0.4-5.5-0.4c-6.3,0.1-12.9-1.2-18.4,3.5c-2.9,1.1-3.7,3.2-3.5,6.3c0.3,4.4,0.1,8.8,0.1,13.8
		c-0.7-1.2-1.1-1.7-1.4-2.3c-0.2-2-0.5-3.9-0.4-5.9c0-6.2-3.6-11.8-9.4-14.2c-7-2.8-14.3-2.4-21.4-1.5c-11.7,1.4-19.4,9.1-24.9,18.6
		c-2.5,4.3-6,6.1-9.7,6.5C17.6,31.9,6.1,47.3,4.2,59.3c-2.2,14,3.6,26,18.9,26c4.8,0,7.2,1.7,9.6,5.2c11.3,16.8,22.8,33.5,34.2,50.3
		c2.9,4.2,2.8,4.1,7.1,1.1c10.2-7.2,20.4-14.3,30.6-21.5c1.7,1,3.4,2.1,5.2,3.1c10.4,5.5,20.9,10.8,31.1,16.6c3,1.7,3.7,0.7,5-1.7
		c3.6-7,7.6-13.7,11.2-20.7c4.9-9.4,9.7-18.8,14.3-28.4c2.6-5.6,5.5-10,12.5-11c6.4-0.9,12.5-3.4,15.8-9.8c3.2-4.5,2.9-9.4,1.6-14.3
		c-4.3-15.6-18.4-27.2-34.6-28.6c-5-0.4-9.6-0.9-12.6-6.1c-1.6-2.8-4.4-5-7-6.9C141.9,8.9,136.7,5.3,129.9,5.7z"/>
	<path class="st1" d="M104.7,120.4c-10.2,7.2-20.4,14.3-30.6,21.5c-4.3,3-4.3,3.2-7.1-1.1C55.5,124.1,44,107.4,32.7,90.5
		c-2.4-3.5-4.8-5.2-9.6-5.2c-15.3,0-21.1-12-18.9-26C6.1,47.3,17.6,31.9,35.3,30c3.7-0.4,7.2-2.2,9.7-6.5C50.6,14.1,58.3,6.4,70,4.9
		c7.2-0.9,14.5-1.3,21.4,1.5c5.8,2.4,9.4,8,9.4,14.2c0,2,0.3,3.9,0.4,5.9c-0.1,0.7,0,1.4-0.2,1.9c-2.2,5.4-3.3,10.5,1.5,15.2
		c1.3,1.3,2.2,2.9,3.2,4.4c0.4,1.2,0.5,2.6,1.1,3.5c7.2,10.5,14.5,20.9,21.7,31.4c3.1,4.5,6.1,9.1,9.1,13.7c-2,1.7-3.9,3.3-5.9,5
		C122.8,107.9,113.7,114.2,104.7,120.4z M78.7,8.1C64.5,9.2,54.2,16,47.2,27.7c-2,3.3-4.3,5.3-8.4,6.1C24,36.7,12.6,43.8,8,59.3
		c-3.7,12.4,3.2,22.6,16.1,22.1c5.1-0.2,8,1.8,10.6,5.7c10.7,16,21.7,31.9,32.4,47.9c1.8,2.7,3.3,3.4,6.2,1.3
		c18-12.8,36.2-25.4,54.2-38.1c5.3-3.7,5.3-3.8,1.4-9.3c-10.6-14.9-21-29.9-31.8-44.7c-2.8-3.8-2.9-7.6-2-11.8
		c0.3-1.5,1.1-2.8,1.3-4.3C98,17,95,11.1,84.8,8.7C82.7,8.2,80.5,8.3,78.7,8.1z"/>
	<path class="st2" d="M199.7,68.5c-3.3,6.4-9.4,8.9-15.8,9.8c-7,1-9.8,5.4-12.5,11c-4.5,9.6-9.4,19-14.3,28.4
		c-3.6,7-7.6,13.7-11.2,20.7c-1.3,2.4-2,3.4-5,1.7c-10.2-5.8-20.7-11.1-31.1-16.6c1.6-2,3-4.4,5-6.1c3.1-2.6,6.6-4.7,10-7.1
		c2-1.1,3.9-2.3,6-3.2c3.3-1.3,6.7-2.4,10-3.6c-1,1-1.9,2.5-3.1,2.8c-8.7,2.4-14.9,8.9-22.1,13.8c-0.3,0.2,0.1,1.5,0.2,2.4
		c7.5,4,15,7.8,22.3,12.1c3.4,2,4.7,0.8,6.2-2.1c7.4-14.3,15.1-28.5,22.2-43c4-8.2,7.9-15.9,18.6-16.1c1.1,0,2.3-0.6,3.3-1.1
		c4.1-2.2,7.8-5,8.4-9.8c0.7-5.4-0.5-10.6-3.7-15.2c-7.6-11-18.1-16.8-31.4-17.5c-4.1-0.2-6.9-1.7-9.6-5.1
		c-8.7-11.3-20.1-17.3-34.8-15c-3.3,0.5-6.3,2.6-9.4,3.9c-0.7,2-1.4,4-2.2,6c0.1-3.6,0.2-7.2,0.4-10.9c5.5-4.7,12.1-3.4,18.4-3.5
		c1.8,0,3.6,0.2,5.5,0.4c9.5,3.4,18.2,7.9,24.2,16.5c2.2,3.2,5.1,4,8.8,4.6c6,1,12.1,2.3,17.5,4.9c14.6,6.9,21,20,18.8,36.1
		C199.2,67.9,199.5,68.2,199.7,68.5z"/>
	<path class="st3" d="M106.1,8.7c-0.1,3.6-0.2,7.2-0.4,10.9c-0.3,3.8-0.8,7.5-0.8,11.3c0,2.6,0.6,5.1,1,7.7c0.6,1.7,0.8,3.6,1.7,5
		c2.9,4.4,6,8.7,9.1,13c-1.3-0.8-2.6-1.7-3.9-2.4c-1-0.6-2-1-3-1.5c-1.3-1.5-2.6-3-4-4.5c-1.1-1.5-2-3.1-3.2-4.4
		c-4.8-4.7-3.8-9.9-1.5-15.2c0.2-0.6,0.1-1.3,0.2-1.9c0.3,0.6,0.7,1.1,1.4,2.3c0-5,0.3-9.4-0.1-13.8C102.3,11.9,103.2,9.9,106.1,8.7
		z"/>
	<path class="st4" d="M199.7,68.5c-0.2-0.3-0.5-0.6-0.4-0.8c2.2-16.1-4.3-29.2-18.8-36.1c-5.4-2.6-11.6-3.8-17.5-4.9
		c-3.6-0.6-6.6-1.4-8.8-4.6c-5.9-8.5-14.7-13-24.2-16.5c6.8-0.4,12,3.2,17.1,6.9c2.7,1.9,5.5,4.2,7,6.9c3,5.2,7.6,5.6,12.6,6.1
		c16.2,1.4,30.2,13,34.6,28.6C202.6,59.1,202.8,64,199.7,68.5z"/>
	<path class="st5" d="M124.7,110.4c-3.3,2.3-6.8,4.5-10,7.1c-2,1.7-3.3,4-5,6.1c-1.7-1-3.4-2.1-5.2-3.1c9.1-6.3,18.1-12.5,27.2-18.8
		c0.3,0.6,0.6,1.3,1,1.9C130.1,105.8,127.4,108.1,124.7,110.4z"/>
	<path class="st6" d="M78.7,8.1c1.8,0.2,4,0.1,6.1,0.6C95,11.1,98,17,96.5,28.3c-0.2,1.5-1,2.8-1.3,4.3c-0.9,4.2-0.7,8,2,11.8
		C108,59.1,118.4,74.1,129,89c3.8,5.4,3.9,5.5-1.4,9.3c-18.1,12.7-36.2,25.3-54.2,38.1c-3,2.1-4.4,1.4-6.2-1.3
		c-10.8-16-21.7-31.9-32.4-47.9c-2.6-3.9-5.5-5.9-10.6-5.7C11.2,81.9,4.3,71.7,8,59.3C12.6,43.8,24,36.7,38.8,33.9
		c4.1-0.8,6.4-2.8,8.4-6.1C54.2,16,64.5,9.2,78.7,8.1z M78.9,100.1c-0.4-7.5,7.6-13.8,14.6-11.6c3.5,1.1,6.8,0.6,9.1-2.1
		c2.4-2.8,3.1-6.4,1.1-9.8c-2.4-3.8-2.7-8.5-6.6-11.9c-3.2-2.7-4.9-7.1-7.6-10.5c-1.5-1.9-4.9-3.1-5.1-4.9c-0.2-2.2,2-4.6,3.2-6.9
		c0.5-0.9,1.4-1.7,1.4-2.6c0.1-2.5,0.5-5.4-0.5-7.6c-1.6-3.6-4.1-6.7-6.2-10.1c-2.4-4-6.9-5.8-10.6-3.8c-4.6,2.5-9.3,5.2-13.5,8.4
		c-5.3,4-5.7,11.5-1.5,17c1.1,1.4,2.1,3.1,2.6,4.7c1.1,3.5-0.7,5.6-4.3,6.1c-5.7,0.7-9.2-2.6-12.6-6.3c-3.9-4.3-5.7-4.7-10.8-2
		c-3.5,1.8-7,3.5-10.5,5.3c-0.4,0.2-0.7,0.9-0.8,1.4c-0.5,1.9-0.8,3.9-1.5,5.7c-1.9,4.9-0.4,9,2.5,13.1c1.3,1.9,1.5,4.6,3.1,6.2
		c1.4,1.4,3.9,1.9,6,2.6c1.2,0.4,2.6,0.7,3.8,0.4c2.6-0.8,5.2-2,7.8-2.9c3.2-1.2,4.5-0.2,5.3,3.2c0.7,2.9,1.3,6.3,3,8.5
		c4.5,5.8,9.6,11.1,14.6,16.5c1.9,2,3.6,4.4,7.2,2.7C76.9,106.5,79.2,104,78.9,100.1z"/>
	<path class="st7" d="M132.8,103.6c-0.3-0.6-0.6-1.3-1-1.9c2-1.7,3.9-3.3,5.9-5c-1.2-3-1.9-6.3-3.6-8.9c-8-11.8-16.2-23.4-24.3-35.1
		c1,0.5,2,1,3,1.5c1.3,0.8,2.6,1.6,3.9,2.4c0.7,0.4,1.3,0.7,2,1.1c0.8,1.9,1.4,4.1,2.6,5.8c4.2,6.1,8.7,12.1,12.9,18.1
		c1.9,2.7,3.6,5.5,5.2,8.4C142.2,94.9,140,99.1,132.8,103.6z"/>
	<path class="st8" d="M109.8,52.6c8.1,11.7,16.4,23.3,24.3,35.1c1.7,2.6,2.5,5.9,3.6,8.9c-3-4.6-6-9.2-9.1-13.7
		c-7.2-10.5-14.5-20.9-21.7-31.4c-0.7-1-0.8-2.3-1.1-3.5C107.1,49.6,108.5,51.1,109.8,52.6z"/>
	<path class="st6" d="M107.9,13.6c3.1-1.3,6.2-3.4,9.4-3.9c14.6-2.4,26,3.7,34.8,15c2.6,3.4,5.5,4.9,9.6,5.1
		c13.3,0.7,23.8,6.5,31.4,17.5c3.2,4.6,4.4,9.8,3.7,15.2c-0.6,4.9-4.3,7.7-8.4,9.8c-1,0.5-2.2,1.1-3.3,1.1
		c-10.7,0.3-14.5,8-18.6,16.1c-7.1,14.5-14.8,28.6-22.2,43c-1.5,2.9-2.8,4.1-6.2,2.1c-7.3-4.3-14.9-8.1-22.3-12.1
		c4.4-4.3,10.5-6.1,14.9-10.6c1.7-1.7,4.8-3,7.1-2.8c3.6,0.2,4.9-1.8,6.7-4c2.2-2.8,2.6-7.5,7.6-7.6c0.2,0,0.7-1.5,0.6-2.1
		c-1.4-5.3,2.4-9.1,4.3-13.3c0.9-1.9,1.6-3.1,1.2-5.2c-0.7-4,1.6-5.8,5.7-4.8c1.1,0.3,2.2,0.7,3.3,1.1c4.5,1.3,6.7,0.6,9.1-3.5
		c0.9-1.5,1.1-3.4,1.6-5.1c7.6-5.2,8-15,0.6-20.5c-1.2-0.9-2.5-1.7-3.7-2.5c-3.1-2.1-6-4.7-9.3-6.3c-2.8-1.3-6.1-1.3-8.7-1.8
		c0,0.7,0.7,2.7,0.1,3.6c-1.8,2.5-4,4.8-6.3,6.9c-0.7,0.7-2.6,1-3.3,0.5c-0.8-0.5-1.2-2.1-1.3-3.2c-0.4-4.6-0.6-9.2-0.9-13.8
		c-0.2-2.1-0.8-4.3-1.1-6.4c-0.3-2.2-2.6-4.6-5.3-5.3c0.2,0.5,0.3,1,0.4,1.4c0.3,1.6,0.6,3.3,0.9,4.9c-1.4-0.6-2.8-1.1-4.1-1.9
		c-5.6-3.3-11.4-5.5-18-4.5c-2.6,0.4-8.3-0.2-9.9-1.1C107.8,14.2,107.9,13.9,107.9,13.6z"/>
	<path class="st9" d="M177.9,64.6c-0.5,1.7-0.7,3.6-1.6,5.1c-2.5,4.2-4.6,4.9-9.1,3.5c-1.1-0.3-2.2-0.8-3.3-1.1
		c-4-1-6.3,0.8-5.7,4.8c0.4,2.1-0.3,3.3-1.2,5.2c-1.9,4.2-5.7,7.9-4.3,13.3c0.2,0.6-0.3,2.1-0.6,2.1c-5,0.1-5.3,4.9-7.6,7.6
		c-1.8,2.2-3.1,4.2-6.7,4c-2.4-0.1-5.5,1.1-7.1,2.8c-4.4,4.5-10.5,6.3-14.9,10.6c-0.1-0.8-0.5-2.1-0.2-2.4
		c7.2-4.9,13.3-11.4,22.1-13.8c1.2-0.3,2.1-1.8,3.1-2.8c1.6-2.7,3.2-5.3,4.7-8c3-6.1,6-12.2,8.9-18.4c0.3-0.6-0.4-2.5-1-2.7
		c-3.9-1.3-4.1-4.6-4.4-7.8c1.9-2.6,2.8-7.9,7.4-2.7c4.6-1.1,7.2,2,10.1,4.7c1.1,1,2.9,1.4,4.3,2c1.3-0.7,2.7-1.1,3.7-2
		C175.8,67.5,176.8,66,177.9,64.6z"/>
	<path class="st10" d="M145.5,95.6c-1.6,2.7-3.2,5.3-4.7,8c-3.3,1.2-6.7,2.3-10,3.6c-2.1,0.9-4,2.1-6,3.2c2.7-2.3,5.4-4.5,8.1-6.8
		c7.2-4.5,9.4-8.7,6.6-13.6c-1.6-2.9-3.4-5.7-5.2-8.4c-4.3-6.1-8.7-12-12.9-18.1c-1.2-1.7-1.7-3.9-2.6-5.8c1,0.3,2,0.6,3,0.9
		c3.1,4.2,6.2,8.4,9.4,12.6c3.3,4.4,6.5,9,10.2,13.2c2.4,2.8,5.4,4.9,3.7,9.3C144.7,94.2,145.3,94.9,145.5,95.6z"/>
	<path class="st11" d="M107.9,13.6c0,0.3,0,0.6,0,0.9c0.4,3.6,0.6,7.2,1.1,10.8c0.2,1.2,0.8,2.4,1.2,3.6c1-0.8,2.1-1.6,3-2.5
		c2.1-2.1,2.3-6.3,6.7-5.8c-2.3,4.3-4.7,8.7-7,13c-0.8,1.4-1.6,2.8-2.3,4.3c-1.3,2.8-2.8,2.9-4.7,0.6c-0.3-2.6-1-5.1-1-7.7
		c0-3.8,0.5-7.5,0.8-11.3C106.5,17.6,107.2,15.6,107.9,13.6z"/>
	<path class="st12" d="M105.9,38.5c1.9,2.3,3.4,2.3,4.7-0.6c0.7-1.5,1.5-2.9,2.3-4.3c0.8,2.4,1.3,5.4,4.7,2.5
		c-0.3,2.5-0.5,4.9-0.7,7.4c-1.5,0.5-3,0.9-4.4,1.4c0.8,1.7,1.2,3.8,2.4,5c3.1,3.1,6.6,5.8,10,8.6c-1,0-2.1,0-3.1,0.1
		c-1-0.3-2-0.6-3-0.9c-0.7-0.4-1.3-0.7-2-1.1c-3-4.3-6.2-8.6-9.1-13C106.7,42.1,106.5,40.2,105.9,38.5z"/>
	<path class="st13" d="M78.9,100.1c0.2,4-2,6.5-6.9,8.7c-3.6,1.7-5.3-0.7-7.2-2.7c-5-5.4-10.1-10.7-14.6-16.5
		c-1.8-2.3-2.3-5.6-3-8.5c-0.8-3.4-2.1-4.4-5.3-3.2c-2.6,0.9-5.1,2.1-7.8,2.9c-1.1,0.3-2.6,0-3.8-0.4c-2.1-0.7-4.6-1.1-6-2.6
		c-1.5-1.5-1.7-4.3-3.1-6.2c-2.9-4-4.3-8.1-2.5-13.1c0.7-1.8,0.9-3.8,1.5-5.7c0.1-0.5,0.4-1.1,0.8-1.4c3.5-1.8,7-3.5,10.5-5.3
		c5.1-2.6,7-2.2,10.8,2c3.3,3.7,6.9,7.1,12.6,6.3c3.7-0.5,5.4-2.6,4.3-6.1c-0.5-1.7-1.6-3.3-2.6-4.7c-4.2-5.5-3.8-13,1.5-17
		c4.2-3.2,8.9-5.8,13.5-8.4c3.7-2,8.1-0.2,10.6,3.8c2.1,3.4,4.6,6.5,6.2,10.1c1,2.2,0.6,5,0.5,7.6c0,0.9-1,1.7-1.4,2.6
		c-1.2,2.3-3.4,4.8-3.2,6.9c0.2,1.8,3.6,3,5.1,4.9c2.7,3.4,4.4,7.8,7.6,10.5c3.9,3.3,4.2,8,6.6,11.9c2.1,3.4,1.4,6.9-1.1,9.8
		c-2.3,2.7-5.6,3.2-9.1,2.1C86.5,86.3,78.5,92.6,78.9,100.1z M79,56.5c-0.1,0.2-0.3,0.4-0.4,0.6c-1.5-1.1-3.7-2-4.3-3.5
		c-0.5-1.1,0.6-3.5,1.7-4.6c2.6-2.7,5.5-5.1,8.4-7.5c2.1-1.7,3.2-3.1,1.2-5.7c-3.3-4.3-6.2-8.8-9.3-13.3c-1.3-1.9-2.8-2.1-4.6-0.8
		c-4.8,3.6-9.5,7.1-14.2,10.8c-0.4,0.3-0.7,1.3-0.5,1.7c1,2.2,2,4.4,3.3,6.4c1.9,2.9,4,5.6,5.9,8.6c0.4,0.6,0.3,2.1-0.1,2.5
		c-3.4,3-7.2,5.7-10.4,8.9c-3.1,3.2-5.1,2-7.2-0.7c-2-2.6-3.9-5.3-6-7.9c-4.3-5.5-4.3-5.5-9.8-1.6c-1.8,1.2-3.7,2.3-5.5,3.5
		c-6.7,4.3-7.4,6.3-4.3,13c3.7,7.9,10.8,10.2,18.4,5.7c2.3-1.3,4.3-3,6.6-4.4c0.8-0.5,2.2-1,3-0.6c5.6,2.6,6.3,7.1,1.4,10.8
		c-2.8,2.1-2.5,3.6-0.6,6c5.1,6.3,10,12.8,14.8,19.3c2.1,2.9,4.1,2.7,6.6,0.8c2.3-1.8,5.2-3.2,2.7-7c-0.7-1.1-1.2-3.5-0.6-4.2
		c2.9-3.5,6.3-6.7,9.5-10c1.9-2,3.6-1.4,5.6,0.3c4.5,4,5.3,3.8,10.1,0c2.1-1.7,2.7-3,0.8-5.3c-3-3.5-5.7-7.3-8.4-11
		c-0.7-0.9-1.2-1.9-1.8-2.8c-1.3-2.1-2.8-4.2-3.9-6.5c-1.8-3.7-4.4-2.5-7-1.4C79.7,56.6,79.3,56.5,79,56.5z"/>
	<path class="st14" d="M119.8,20.6c-4.3-0.5-4.6,3.6-6.7,5.8c-0.9,0.9-2,1.7-3,2.5c-0.4-1.2-1-2.3-1.2-3.6
		c-0.5-3.6-0.8-7.2-1.1-10.8c1.6,1,7.3,1.5,9.9,1.1c6.6-1,12.4,1.2,18,4.5c1.3,0.8,2.7,1.3,4.1,1.9c-0.3-1.6-0.6-3.3-0.9-4.9
		c-0.1-0.5-0.3-0.9-0.4-1.4c2.8,0.7,5,3.1,5.3,5.3c0.3,2.1,0.9,4.3,1.1,6.4c0.4,4.6,0.5,9.2,0.9,13.8c0.1,1.2,0.5,2.7,1.3,3.2
		c0.7,0.5,2.6,0.1,3.3-0.5c2.3-2.1,4.6-4.3,6.3-6.9c0.7-1,0-2.9-0.1-3.6c2.7,0.5,6,0.5,8.7,1.8c3.4,1.6,6.2,4.1,9.3,6.3
		c-1,0.3-2,0.7-3,1c-2.2-1-4.5-2-6.7-3.2c-2.3-1.2-3.8-1-6.1,0.7c-3.9,2.8-4.3,7.8-8.5,10.4c-3.2,2-6.1,3.8-9.1,1.6
		c-3.8-2.7-6.2-3.8-2.6-9.6c1.9-3,2.6-6.7,3.5-10.2c0.2-0.7-1-1.8-1.5-2.7c-3.1-1.9-5.9-4.3-9.2-5.6
		C127.7,22.7,124.7,18.3,119.8,20.6z"/>
	<path class="st15" d="M171.8,42.5c1-0.3,2-0.7,3-1c1.2,0.8,2.5,1.6,3.7,2.5c7.3,5.5,7,15.3-0.6,20.5c-1.1,1.4-2.1,3-3.4,4.2
		c-1,0.9-2.5,1.4-3.7,2c2.8-5.4,5.3-10.9,8.4-16c1.7-2.8,1.2-4.7-0.5-6.9C176.4,46,174.1,44.3,171.8,42.5z"/>
	<path class="st16" d="M121.7,58.6c1,0,2.1,0,3.1-0.1c3.2-1.8,4.4-4.5,4.1-8c1.3-0.3,2.5-0.6,3.8-1c1.6,1.1,3.1,2.2,4.7,3.3
		c3.1,2.2,6.3,4.5,9.4,6.7c0.7,2.3,1.4,4.7,2.2,7c0.4,3.2,0.5,6.5,4.4,7.8c0.6,0.2,1.3,2,1,2.7c-2.8,6.2-5.9,12.3-8.9,18.4
		c-0.2-0.6-0.8-1.4-0.6-1.8c1.8-4.3-1.3-6.5-3.7-9.3c-3.6-4.2-6.8-8.8-10.2-13.2C127.9,67,124.8,62.8,121.7,58.6z"/>
	<path class="st16" d="M149,66.6c-0.7-2.3-1.4-4.7-2.2-7c1.4-0.7,3.2-1.1,4-2.3c3.3-4.5,6.6-9,9.3-13.9c1.3-2.3,2.1-2.1,4.1-1.3
		c4.8,2,9.7,3.8,14.5,5.6c1.7,2.2,2.2,4.2,0.5,6.9c-3.1,5.1-5.7,10.6-8.4,16c-1.5-0.7-3.2-1-4.3-2c-2.9-2.7-5.5-5.8-10.1-4.7
		C151.7,58.8,150.8,64,149,66.6z"/>
	<path class="st16" d="M132.7,49.6c-1.3,0.3-2.5,0.6-3.8,1c-4-2.3-8.1-4.7-12.1-7c0.2-2.4,0.5-4.9,0.7-7.4c-3.4,2.9-3.9-0.1-4.7-2.5
		c2.3-4.3,4.7-8.7,7-13c4.9-2.3,7.9,2.1,11.6,3.5c3.3,1.2,6.2,3.7,9.2,5.6c-0.4,1.2-0.6,2.5-1.1,3.7C137.3,38.7,135,44.1,132.7,49.6
		z"/>
	<path class="st17" d="M116.8,43.5c4,2.3,8.1,4.7,12.1,7c0.3,3.5-0.9,6.3-4.1,8c-3.4-2.9-6.9-5.6-10-8.6c-1.2-1.2-1.6-3.3-2.4-5
		C113.9,44.4,115.3,44,116.8,43.5z"/>
	<path class="st18" d="M79,56.5c0.3,0,0.7,0.1,1,0c2.6-1.1,5.2-2.3,7,1.4c1.1,2.3,2.6,4.3,3.9,6.5c0.6,1,1.2,1.9,1.8,2.8
		c2.8,3.7,5.5,7.4,8.4,11c1.9,2.3,1.3,3.6-0.8,5.3c-4.8,3.9-5.6,4.1-10.1,0c-2-1.8-3.6-2.3-5.6-0.3c-3.2,3.3-6.6,6.5-9.5,10
		c-0.6,0.8-0.2,3.1,0.6,4.2c2.4,3.8-0.4,5.3-2.7,7c-2.5,1.9-4.5,2.1-6.6-0.8c-4.8-6.6-9.7-13-14.8-19.3c-1.9-2.4-2.2-3.9,0.6-6
		c4.9-3.7,4.2-8.1-1.4-10.8c-0.7-0.4-2.1,0.1-3,0.6c-2.3,1.3-4.3,3-6.6,4.4c-7.6,4.5-14.7,2.2-18.4-5.7c-3.1-6.6-2.4-8.6,4.3-13
		c1.8-1.2,3.7-2.2,5.5-3.5c5.5-3.9,5.5-3.9,9.8,1.6c2,2.6,4,5.3,6,7.9c2.1,2.8,4.1,3.9,7.2,0.7c3.2-3.3,7-5.9,10.4-8.9
		c0.5-0.4,0.5-1.9,0.1-2.5c-1.9-2.9-4-5.6-5.9-8.6c-1.3-2-2.3-4.2-3.3-6.4c-0.2-0.4,0.1-1.4,0.5-1.7c4.7-3.6,9.5-7.2,14.2-10.8
		c1.8-1.4,3.3-1.1,4.6,0.8c3.1,4.5,6,9,9.3,13.3c2,2.6,0.9,4-1.2,5.7c-2.9,2.4-5.9,4.8-8.4,7.5c-1.1,1.1-2.2,3.5-1.7,4.6
		c0.6,1.5,2.8,2.4,4.3,3.5C78.7,56.9,78.8,56.7,79,56.5z"/>
	<path class="st19" d="M132.7,49.6c2.3-5.4,4.6-10.8,6.8-16.3c0.5-1.2,0.8-2.4,1.1-3.7c0.6,0.9,1.7,2,1.5,2.7
		c-0.9,3.5-1.7,7.2-3.5,10.2c-3.6,5.8-1.2,6.9,2.6,9.6c3,2.1,5.9,0.4,9.1-1.6c4.2-2.6,4.7-7.7,8.5-10.4c2.3-1.7,3.9-1.9,6.1-0.7
		c2.2,1.2,4.5,2.1,6.7,3.2c2.3,1.8,4.6,3.5,6.9,5.3c-4.8-1.8-9.7-3.6-14.5-5.6c-2-0.8-2.8-1-4.1,1.3c-2.7,4.9-6,9.4-9.3,13.9
		c-0.8,1.1-2.7,1.5-4,2.3c-3.1-2.2-6.3-4.5-9.4-6.7C135.8,51.8,134.3,50.7,132.7,49.6z"/>
</g>
</svg>
