<?xml version="1.0" encoding="iso-8859-1"?>
<!-- Generator: Adobe Illustrator 19.0.0, SVG Export Plug-In . SVG Version: 6.00 Build 0)  -->
<svg version="1.1" id="Layer_1" xmlns="http://www.w3.org/2000/svg" xmlns:xlink="http://www.w3.org/1999/xlink" x="0px" y="0px"
	 viewBox="0 0 512 512" style="enable-background:new 0 0 512 512;" xml:space="preserve">
<path style="fill:#A4E276;" d="M509.538,323.166l-62.06-124.12c-3.941-7.885-11.999-12.864-20.815-12.864
	c-8.816,0-16.874,4.98-20.815,12.864L336.235,338.27l-80.234-206.319l-9.342-24.022c-3.385-8.702-11.642-14.541-20.976-14.826
	c-9.267-0.285-17.932,5.03-21.845,13.509l-86.851,188.175H23.273C10.42,294.788,0,305.208,0,318.06
	c0,12.853,10.42,23.272,23.273,23.272h108.605c9.078,0,17.327-5.278,21.13-13.52l70.129-151.946l32.862,84.506l55.882,143.698
	c3.336,8.58,11.416,14.386,20.612,14.812c0.362,0.017,0.723,0.025,1.083,0.025c8.78,0,16.857-4.956,20.81-12.865l72.277-144.55
	l41.245,82.489c5.747,11.497,19.726,16.157,31.222,10.408C510.627,348.642,515.286,334.663,509.538,323.166z"/>
<path style="fill:#64C37D;" d="M246.659,107.929c-3.385-8.702-11.642-14.541-20.976-14.826c-9.267-0.285-17.932,5.03-21.845,13.509
	l-86.851,188.175H23.273C10.42,294.788,0,305.208,0,318.06c0,12.853,10.42,23.272,23.273,23.272h108.605
	c9.078,0,17.327-5.278,21.13-13.52l70.129-151.946l32.862,84.506V131.951L246.659,107.929z"/>
<g>
</g>
<g>
</g>
<g>
</g>
<g>
</g>
<g>
</g>
<g>
</g>
<g>
</g>
<g>
</g>
<g>
</g>
<g>
</g>
<g>
</g>
<g>
</g>
<g>
</g>
<g>
</g>
<g>
</g>
</svg>
