<?xml version="1.0" encoding="utf-8"?>
<!-- Generator: Adobe Illustrator 20.1.0, SVG Export Plug-In . SVG Version: 6.00 Build 0)  -->
<svg version="1.1" id="Capa_1" xmlns="http://www.w3.org/2000/svg" xmlns:xlink="http://www.w3.org/1999/xlink" x="0px" y="0px"
	 viewBox="0 0 60 60" style="enable-background:new 0 0 60 60;" xml:space="preserve">
<style type="text/css">
	.st0{fill:#DE7E00;}
</style>
<g>
	<g>
		<path class="st0" d="M59,32h-3V13c0-0.6-0.4-1-1-1h-8h-6h-7V5c0-0.6-0.4-1-1-1h-9h-6H9C8.4,4,8,4.4,8,5v21H1c-0.6,0-1,0.4-1,1v28
			c0,0.6,0.4,1,1,1h32h26c0.6,0,1-0.4,1-1V33C60,32.4,59.6,32,59,32z M46,14v6h-4v-6H46z M40,14v7c0,0.6,0.4,1,1,1h6
			c0.6,0,1-0.4,1-1v-7h6v18h-5h-6h-9v-5V14H40z M44,34h4v6h-4V34z M23,6v6h-4V6H23z M10,6h7v7c0,0.6,0.4,1,1,1h6c0.6,0,1-0.4,1-1V6
			h7v7v13H21h-8h-3V6z M14,28h6v8h-6V28z M2,28h7h3v9c0,0.6,0.4,1,1,1h8c0.6,0,1-0.4,1-1v-9h10v5v21H2V28z M58,54H34V34h8v7
			c0,0.6,0.4,1,1,1h6c0.6,0,1-0.4,1-1v-7h5h3V54z"/>
		<rect x="12" y="18" class="st0" width="6" height="2"/>
		<rect x="12" y="22" class="st0" width="8" height="2"/>
		<rect x="4" y="46" class="st0" width="6" height="2"/>
		<rect x="4" y="50" class="st0" width="8" height="2"/>
		<rect x="36" y="46" class="st0" width="6" height="2"/>
		<rect x="36" y="50" class="st0" width="8" height="2"/>
		<rect x="36" y="24" class="st0" width="6" height="2"/>
		<rect x="36" y="28" class="st0" width="8" height="2"/>
		<rect x="24" y="18" class="st0" width="2" height="2"/>
		<rect x="28" y="18" class="st0" width="2" height="2"/>
		<rect x="24" y="22" class="st0" width="2" height="2"/>
		<rect x="28" y="22" class="st0" width="2" height="2"/>
		<rect x="24" y="46" class="st0" width="2" height="2"/>
		<rect x="28" y="46" class="st0" width="2" height="2"/>
		<rect x="24" y="50" class="st0" width="2" height="2"/>
		<rect x="28" y="50" class="st0" width="2" height="2"/>
		<rect x="50" y="46" class="st0" width="2" height="2"/>
		<rect x="54" y="46" class="st0" width="2" height="2"/>
		<rect x="50" y="50" class="st0" width="2" height="2"/>
		<rect x="54" y="50" class="st0" width="2" height="2"/>
		<rect x="46" y="24" class="st0" width="2" height="2"/>
		<rect x="50" y="24" class="st0" width="2" height="2"/>
		<rect x="46" y="28" class="st0" width="2" height="2"/>
		<rect x="50" y="28" class="st0" width="2" height="2"/>
	</g>
</g>
</svg>
